<svg width="60" height="60" viewBox="0 0 60 60" fill="none" xmlns="http://www.w3.org/2000/svg">
<g clip-path="url(#clip0)">
<path d="M45.1739 52.0759L29.9998 56.1617L14.8253 52.0759L11.3237 14.1404H48.676L45.1739 52.0759Z" fill="#2062AF"/>
<path d="M29.9997 17.2131V52.9029L30.034 52.9123L42.3138 49.6056L45.1482 17.2131H29.9997V17.2131Z" fill="#3C9CD7"/>
<path d="M21.3877 8.56687V6.30895H24.682V3.83826H18.917V10.8214H24.682V8.56687H21.3877ZM30.6081 6.30895H32.9113V3.83826H27.1457V6.30895C27.9171 7.08031 28.3193 7.4495 29.4349 8.56509C28.7828 8.56509 27.1457 8.56742 27.1457 8.56731V10.8214H32.9113V8.56687L30.6081 6.30895ZM38.7798 6.30895H41.0828V3.83826H35.317V6.30895C36.0884 7.08031 36.4909 7.4495 37.6065 8.56509C36.9546 8.56509 35.317 8.56742 35.317 8.56731V10.8214H41.083V8.56687L38.7798 6.30895V6.30895Z" fill="black"/>
<path d="M29.9861 26.6985L19.1255 31.2217L19.4857 35.7L29.9861 31.2103L41.1559 26.4347L41.619 21.8536L29.9861 26.6985Z" fill="white"/>
<path d="M19.1254 31.2216L19.4855 35.6999L29.986 31.2103V26.6985L19.1254 31.2216V31.2216Z" fill="url(#paint0_linear)"/>
<path d="M41.619 21.8537L29.9862 26.6985V31.2103L41.1559 26.4347L41.619 21.8537Z" fill="url(#paint1_linear)"/>
<path d="M19.1421 31.2217L19.5024 35.7L35.6141 35.7513L35.2537 41.7223L29.952 43.2149L24.8555 41.9281L24.5467 38.2219H19.8112L20.4289 45.3768L30.0035 48.2078L39.5262 45.4282L40.7616 31.2217H19.1421V31.2217Z" fill="url(#paint2_linear)"/>
<path opacity="0.05" d="M29.9862 31.2217H19.1255L19.4857 35.7L29.9862 35.7335V31.2217ZM29.9862 43.2006L29.9347 43.215L24.8389 41.9282L24.5301 38.222H19.7947L20.4123 45.3769L29.9862 48.2079V43.2006Z" fill="black"/>
<path d="M18.1473 21.8537H41.6192L41.1561 26.4348H18.7135L18.1473 21.8537V21.8537Z" fill="url(#paint3_linear)"/>
<path opacity="0.05" d="M29.9862 21.8537H18.1473L18.7135 26.4348H29.9862V21.8537V21.8537Z" fill="black"/>
</g>
<defs>
<linearGradient id="paint0_linear" x1="24.5557" y1="35.7" x2="24.5557" y2="26.6986" gradientUnits="userSpaceOnUse">
<stop offset="0.387" stop-color="#D1D3D4" stop-opacity="0"/>
<stop offset="1" stop-color="#D1D3D4"/>
</linearGradient>
<linearGradient id="paint1_linear" x1="35.8025" y1="31.2104" x2="35.8025" y2="21.8538" gradientUnits="userSpaceOnUse">
<stop offset="0.387" stop-color="#D1D3D4" stop-opacity="0"/>
<stop offset="1" stop-color="#D1D3D4"/>
</linearGradient>
<linearGradient id="paint2_linear" x1="19.1421" y1="39.7148" x2="40.7615" y2="39.7148" gradientUnits="userSpaceOnUse">
<stop stop-color="#E8E7E5"/>
<stop offset="1" stop-color="white"/>
</linearGradient>
<linearGradient id="paint3_linear" x1="18.1473" y1="24.1442" x2="41.6191" y2="24.1442" gradientUnits="userSpaceOnUse">
<stop stop-color="#E8E7E5"/>
<stop offset="1" stop-color="white"/>
</linearGradient>
<clipPath id="clip0">
<rect width="60" height="60" fill="white"/>
</clipPath>
</defs>
</svg>
