<svg width="41" height="60" viewBox="0 0 41 60" fill="none" xmlns="http://www.w3.org/2000/svg">
<g clip-path="url(#clip0)">
<path d="M10.0039 59.9999C15.5239 59.9999 20.0039 55.52 20.0039 50V40H10.0039C4.48395 40 0.00396729 44.48 0.00396729 50C0.00396729 55.52 4.48395 59.9999 10.0039 59.9999Z" fill="#0ACF83"/>
<path d="M0.00396729 30C0.00396729 24.48 4.48395 20 10.0039 20H20.0039V39.9999H10.0039C4.48395 39.9999 0.00396729 35.52 0.00396729 30Z" fill="#A259FF"/>
<path d="M0.00396729 10.0001C0.00396729 4.48006 4.48395 6.10352e-05 10.0039 6.10352e-05H20.0039V20.0001H10.0039C4.48395 20.0001 0.00396729 15.5201 0.00396729 10.0001Z" fill="#F24E1E"/>
<path d="M20.004 6.10352e-05H30.0041C35.5241 6.10352e-05 40.0041 4.48006 40.0041 10.0001C40.0041 15.5201 35.5241 20.0001 30.0041 20.0001H20.004V6.10352e-05Z" fill="#FF7262"/>
<path d="M40.0041 30C40.0041 35.52 35.5241 39.9999 30.0041 39.9999C24.484 39.9999 20.004 35.52 20.004 30C20.004 24.48 24.484 20 30.0041 20C35.5241 20 40.0041 24.48 40.0041 30Z" fill="#1ABCFE"/>
</g>
<defs>
<clipPath id="clip0">
<rect width="40.008" height="60" fill="white"/>
</clipPath>
</defs>
</svg>
