<svg width="43" height="60" viewBox="0 0 43 60" fill="none" xmlns="http://www.w3.org/2000/svg">
<g clip-path="url(#clip0)">
<path d="M3.86806 55.1785L0 11.7929H42.504L38.6317 55.1716L21.2259 59.9972L3.86806 55.1785Z" fill="#E44D26"/>
<path d="M21.252 56.3086L35.3166 52.4091L38.6259 15.3405H21.252V56.3086Z" fill="#F16529"/>
<path d="M21.252 31.4315H14.211L13.7247 25.9827H21.252V20.6616H7.90924L8.03675 22.0891L9.34452 36.7525H21.252V31.4315ZM21.252 45.2508L21.2286 45.2572L15.3026 43.6569L14.9238 39.4132H9.58235L10.3279 47.7681L21.2277 50.7939L21.252 50.787V45.2508Z" fill="#EBEBEB"/>
<path d="M3.95459 0.00271606H6.65862V2.67429H9.13216V0.00271606H11.8363V8.09297H9.13216V5.38392H6.65862V8.09297H3.95478L3.95459 0.00271606ZM15.3924 2.68568H13.012V0.00271606H20.4785V2.68568H18.0969V8.09297H15.3925V2.68568H15.3924ZM21.6633 0.00271606H24.4831L26.2175 2.84546L27.9503 0.00271606H30.771V8.09297H28.0776V4.08291L26.2172 6.95946H26.1708L24.3091 4.08291V8.09297H21.6632V0.00271606H21.6633ZM32.1166 0.00271606H34.8214V5.41888H38.6243V8.09297H32.1166V0.00271606Z" fill="black"/>
<path d="M21.2336 31.4315V36.7524H27.786L27.1683 43.6534L21.2336 45.255V50.7909L32.1421 47.7679L32.2219 46.8686L33.4725 32.8604L33.6023 31.4315H32.1686H21.2336ZM21.2336 20.6616V25.9827H34.0866L34.1931 24.7866L34.4356 22.0891L34.5629 20.6616H21.2336Z" fill="white"/>
</g>
<defs>
<clipPath id="clip0">
<rect width="42.504" height="60" fill="white"/>
</clipPath>
</defs>
</svg>
