<svg width="60" height="60" viewBox="0 0 60 60" fill="none" xmlns="http://www.w3.org/2000/svg">
<path d="M0 0H60V60H0V0Z" fill="#F0DB4F"/>
<path d="M55.0893 45.6902C54.6502 42.9525 52.865 40.6541 47.578 38.5096C45.7415 37.6654 43.6939 37.0609 43.0837 35.6692C42.8669 34.8594 42.8384 34.4031 42.9753 33.9126C43.3688 32.3213 45.2681 31.8251 46.7738 32.2814C47.7433 32.6065 48.6616 33.3537 49.2148 34.5457C51.8042 32.8689 51.7985 32.8803 53.6065 31.7282C52.9449 30.7016 52.5913 30.2282 52.1578 29.789C50.6008 28.0495 48.4791 27.1541 45.0856 27.2225C44.4981 27.2966 43.905 27.3764 43.3175 27.4506C41.6236 27.8784 40.0095 28.7681 39.0628 29.9601C36.2225 33.1826 37.0323 38.8232 40.4886 41.1446C43.8935 43.6997 48.8954 44.2815 49.5342 46.6712C50.1559 49.5971 47.3841 50.5438 44.6293 50.2074C42.5989 49.7853 41.4697 48.753 40.2491 46.8766C38.002 48.177 38.002 48.177 35.6921 49.5059C36.2396 50.7036 36.8156 51.2454 37.7339 52.2834C42.0799 56.6922 52.9563 56.4755 54.9069 49.8024C54.9867 49.5742 55.5115 48.0457 55.0893 45.6902V45.6902ZM32.6179 27.576H27.0057C27.0057 32.424 26.983 37.2377 26.983 42.0856C26.983 45.1712 27.1427 48.0001 26.6408 48.867C25.8195 50.5723 23.6921 50.3613 22.7225 50.0305C21.7358 49.5457 21.2339 48.8556 20.6522 47.8803C20.4925 47.6008 20.3727 47.3841 20.3327 47.367C18.81 48.2967 17.2928 49.232 15.77 50.1617C16.5286 51.7187 17.6464 53.0705 19.078 53.9487C21.2168 55.232 24.0913 55.6255 27.0971 54.9354C29.0533 54.3651 30.7415 53.1845 31.6255 51.3879C32.9031 49.0324 32.6293 46.1807 32.6179 43.0267C32.6464 37.8822 32.6179 32.7377 32.6179 27.576Z" fill="#323330"/>
</svg>
