<svg width="62" height="60" viewBox="0 0 62 60" fill="none" xmlns="http://www.w3.org/2000/svg">
<g clip-path="url(#clip0)">
<path d="M2.5636 2.56964H58.9623V57.4304H2.5636V2.56964Z" fill="url(#paint0_radial)"/>
<path d="M2.56355 2.56972H58.9624V57.4305H2.56355V2.56972ZM0 59.9942H61.526V0.00616455H0V59.9942ZM41.4787 24.6166C39.4535 24.6166 38.7614 25.642 38.7614 26.488C38.7614 27.4108 39.2228 28.0517 41.9402 29.4617C45.965 31.4101 47.2212 33.2815 47.2212 36.0246C47.2212 40.1263 44.0937 42.331 39.8637 42.331C37.6334 42.331 35.7106 41.8695 34.6083 41.2287C34.4289 41.1518 34.4033 41.0236 34.4033 40.8184V37.05C34.4033 36.7936 34.5315 36.7166 34.711 36.8449C36.326 37.896 38.1718 38.3574 39.8637 38.3574C41.889 38.3574 42.7349 37.5115 42.7349 36.3578C42.7349 35.4349 42.1453 34.6146 39.556 33.2815C35.9157 31.5383 34.4033 29.7694 34.4033 26.8213C34.4033 23.5142 36.9926 20.7712 41.4787 20.7712C43.6834 20.7712 45.2216 21.1045 46.0676 21.489C46.2726 21.6172 46.3239 21.8222 46.3239 22.0017V25.5137C46.3239 25.7188 46.1957 25.8471 45.9393 25.7701C44.8114 25.0524 43.1451 24.6166 41.4787 24.6166V24.6166ZM19.4319 27.6673C20.0216 27.7185 20.4831 27.7185 21.5085 27.7185C24.508 27.7185 27.3278 26.6675 27.3278 22.5914C27.3278 19.3357 25.3026 17.6949 21.893 17.6949C20.8676 17.6949 19.8934 17.7462 19.4319 17.7718V27.6673ZM14.8688 14.0546C14.8688 13.8752 15.2278 13.7469 15.4328 13.7469C17.0735 13.67 19.5089 13.6187 22.0468 13.6187C29.1479 13.6187 31.9165 17.5154 31.9165 22.4888C31.9165 29.0003 27.1996 31.7946 21.4059 31.7946C20.4318 31.7946 20.0986 31.7433 19.4063 31.7433V41.5875C19.4063 41.7926 19.3294 41.8951 19.0987 41.8951H15.1764C14.9714 41.8951 14.8687 41.8182 14.8687 41.5875V14.0546H14.8688Z" fill="#31C5F0"/>
</g>
<defs>
<radialGradient id="paint0_radial" cx="0" cy="0" r="1" gradientUnits="userSpaceOnUse" gradientTransform="translate(21.1386 14.864) scale(42.863 41.4993)">
<stop stop-color="#34364E" stop-opacity="0.98"/>
<stop offset="1" stop-color="#0C0824"/>
</radialGradient>
<clipPath id="clip0">
<rect width="61.5258" height="60" fill="white"/>
</clipPath>
</defs>
</svg>
