<svg width="60" height="60" viewBox="0 0 60 60" fill="none" xmlns="http://www.w3.org/2000/svg">
<path d="M30 60C46.5685 60 60 46.5685 60 30C60 13.4315 46.5685 0 30 0C13.4315 0 0 13.4315 0 30C0 46.5685 13.4315 60 30 60Z" fill="#F2F2F2"/>
<path d="M39.0218 47.7383C33.0999 49.9202 26.5944 49.9202 20.6726 47.7383C20.1272 47.5419 19.691 46.8983 19.691 46.3419V44.9128C19.691 44.3564 20.1272 44.0836 20.6728 44.28C26.5946 46.4619 33.1002 46.4619 39.022 44.28C39.5672 44.0836 40.0036 44.3564 40.0036 44.9128V46.3419C39.9928 46.8983 39.5564 47.5419 39.0218 47.7383V47.7383Z" fill="#ED1C24"/>
<path d="M39.0218 45.9927C33.0982 49.0255 26.5964 49.0255 20.6726 45.9927C20.1272 45.7199 19.691 44.8256 19.691 44.051V42.0764C19.691 41.3018 20.1272 40.92 20.6728 41.2036C26.5964 44.2363 33.0982 44.2363 39.022 41.2036C39.5672 40.931 40.0036 41.302 40.0036 42.0764V44.051C39.9928 44.8253 39.5564 45.7199 39.0218 45.9927V45.9927Z" fill="#C1272D"/>
<path d="M29.8472 49.3201C30.3112 49.3201 30.6873 48.944 30.6873 48.4801C30.6873 48.0161 30.3112 47.64 29.8472 47.64C29.3832 47.64 29.0071 48.0161 29.0071 48.4801C29.0071 48.944 29.3832 49.3201 29.8472 49.3201Z" fill="#C1272D"/>
<path d="M29.8471 49.0801C30.2448 49.0801 30.5671 48.7578 30.5671 48.3601C30.5671 47.9624 30.2448 47.64 29.8471 47.64C29.4495 47.64 29.1271 47.9624 29.1271 48.3601C29.1271 48.7578 29.4495 49.0801 29.8471 49.0801Z" fill="#FF931E"/>
<path d="M30.0546 48.8619C30.1932 48.8619 30.3056 48.7495 30.3056 48.6108C30.3056 48.4722 30.1932 48.3598 30.0546 48.3598C29.916 48.3598 29.8036 48.4722 29.8036 48.6108C29.8036 48.7495 29.916 48.8619 30.0546 48.8619Z" fill="#FFB81E"/>
<path d="M29.8472 53.4544C31.0883 53.4544 32.0944 52.4483 32.0944 51.2072C32.0944 49.9661 31.0883 48.96 29.8472 48.96C28.6061 48.96 27.6 49.9661 27.6 51.2072C27.6 52.4483 28.6061 53.4544 29.8472 53.4544Z" fill="#FF931E"/>
<path d="M29.8471 53.2473C30.9617 53.2473 31.8653 52.3437 31.8653 51.2291C31.8653 50.1145 30.9617 49.2109 29.8471 49.2109C28.7325 49.2109 27.8289 50.1145 27.8289 51.2291C27.8289 52.3437 28.7325 53.2473 29.8471 53.2473Z" fill="#FFB81E"/>
<path d="M30.4364 50.5855C30.5564 50.6947 30.6218 50.8473 30.6218 51.0655C30.6218 51.2837 30.5562 51.4365 30.4364 51.5455C30.3054 51.6437 30.12 51.6983 29.8582 51.6983H29.629V52.1891H29.2364V50.4326H29.8582C30.12 50.4326 30.3164 50.4765 30.4364 50.5855V50.5855ZM30.1528 51.2727C30.1964 51.2183 30.2182 51.1419 30.2182 51.0437C30.2182 50.9455 30.1854 50.8691 30.131 50.8257C30.0654 50.7819 29.9782 50.7601 29.8474 50.7601H29.629V51.3491H29.891C30.0218 51.3491 30.109 51.3273 30.1528 51.2727V51.2727Z" fill="#FF931E"/>
<path d="M48.0546 32.9236C48.5999 40.3964 40.5164 47.1056 29.9561 47.0946C19.4072 47.1054 11.3128 40.3962 11.8582 32.9236C12.4036 25.429 20.531 19.2436 29.9782 19.2328C39.4364 19.2436 47.4981 25.429 48.0546 32.9236Z" fill="#F7BD89"/>
<path d="M29.9236 18.1854C19.9964 18.1854 10.7782 25.1782 12.5236 35.8254C12.8728 36.8075 13.451 39.3601 16.211 41.6183C17.04 42.2947 18.469 42.8619 19.1454 42.4037C20.88 41.2254 17.8036 37.8436 21.3164 34.7236H21.24C23.149 33.2729 25.8546 32.1164 29.9018 32.1164C33.949 32.1164 36.6546 33.2729 38.5636 34.7236H38.4872C42 37.8436 38.9346 41.2254 40.6582 42.4037C41.3346 42.8619 42.7746 42.2947 43.5926 41.6183C46.3528 39.3601 46.9418 36.8072 47.291 35.8254C49.0364 25.1672 39.851 18.1854 29.9238 18.1854H29.9236Z" fill="#FBD5A0"/>
<path d="M38.4657 35.869C36.7964 33.8182 33.6328 31.8328 29.9564 31.8328H29.9128C26.2254 31.8328 23.0621 33.818 21.4036 35.869C19.68 37.9636 20.3021 38.8582 20.3021 40.8654C20.3021 48.1311 22.8436 46.0147 24.5564 46.8873C26.3018 47.738 28.069 47.4329 29.9236 47.4329H29.9564C31.811 47.4329 33.5782 47.7383 35.3236 46.8765C37.0254 46.0037 39.5782 48.1421 39.5782 40.8765C39.5672 38.88 40.189 37.9636 38.4654 35.869H38.4657Z" fill="black"/>
<path d="M17.6726 35.6833C19.3535 35.6833 20.7161 34.3207 20.7161 32.6398C20.7161 30.9589 19.3535 29.5962 17.6726 29.5962C15.9916 29.5962 14.629 30.9589 14.629 32.6398C14.629 34.3207 15.9916 35.6833 17.6726 35.6833Z" fill="#F7BD89"/>
<path d="M17.9451 35.1706C19.6261 35.1706 20.9887 33.8079 20.9887 32.127C20.9887 30.446 19.6261 29.0834 17.9451 29.0834C16.2642 29.0834 14.9016 30.446 14.9016 32.127C14.9016 33.8079 16.2642 35.1706 17.9451 35.1706Z" fill="black"/>
<path d="M18.7197 31.5488C19.1535 31.5488 19.5051 31.1971 19.5051 30.7634C19.5051 30.3296 19.1535 29.978 18.7197 29.978C18.286 29.978 17.9344 30.3296 17.9344 30.7634C17.9344 31.1971 18.286 31.5488 18.7197 31.5488Z" fill="white"/>
<path d="M42.1093 35.6833C43.7902 35.6833 45.1529 34.3207 45.1529 32.6398C45.1529 30.9589 43.7902 29.5962 42.1093 29.5962C40.4283 29.5962 39.0657 30.9589 39.0657 32.6398C39.0657 34.3207 40.4283 35.6833 42.1093 35.6833Z" fill="#F7BD89"/>
<path d="M41.9346 35.1706C43.6155 35.1706 44.9782 33.8079 44.9782 32.127C44.9782 30.446 43.6155 29.0834 41.9346 29.0834C40.2537 29.0834 38.891 30.446 38.891 32.127C38.891 33.8079 40.2537 35.1706 41.9346 35.1706Z" fill="black"/>
<path d="M42.7092 31.5488C43.143 31.5488 43.4946 31.1971 43.4946 30.7634C43.4946 30.3296 43.143 29.978 42.7092 29.978C42.2755 29.978 41.9238 30.3296 41.9238 30.7634C41.9238 31.1971 42.2755 31.5488 42.7092 31.5488Z" fill="white"/>
<path d="M23.52 20.9128C23.52 20.9128 13.211 22.691 12.7964 35.0073C12.7854 35.1929 12.589 35.3129 12.4254 35.2147L12.0982 35.0183L11.8474 31.7891L12.3162 25.2L16.6146 22.0254L20.4764 20.4654L23.52 20.9128V20.9128ZM36.3165 20.9128C36.3165 20.9128 46.6255 22.691 47.0401 35.0073C47.0511 35.1929 47.2473 35.3129 47.4111 35.2147L47.7383 35.0183L47.9891 31.7891L47.5201 25.2L43.2219 22.0254L39.3601 20.4654L36.3165 20.9128V20.9128Z" fill="#F7BD89"/>
<path d="M29.7077 42.8461V36.6328H30.1615V42.8313C30.8301 42.9099 31.699 43.2985 32.531 43.549C33.3928 43.8546 34.2218 43.9746 33.8946 44.0182C32.76 44.0618 31.5164 43.6362 29.989 43.6582C28.451 43.6364 27.2072 44.0618 26.0836 44.0182C25.7564 43.9636 26.5854 43.8436 27.4472 43.549C28.2361 43.3116 29.0496 42.9497 29.7077 42.8459V42.8461ZM32.7818 34.5382C33.1418 35.3346 31.8982 36.6328 29.9236 36.6328C27.949 36.6328 26.7056 35.3344 27.0654 34.5382C27.4146 33.72 28.669 33.4582 29.9236 33.4472C31.1782 33.4582 32.4328 33.72 32.7818 34.5382Z" fill="#4D4D4D"/>
<path d="M23.52 20.9128C23.52 20.9128 11.3782 22.5928 12.4254 34.6472C12.48 35.2582 10.0036 32.04 8.08363 31.0582C6.16364 30.0762 6.22903 26.9018 6.22903 26.9018C6.22903 26.9018 6.19621 21.371 13.9528 19.7346C21.6982 18.109 23.52 20.9128 23.52 20.9128V20.9128ZM36.3164 20.9128C36.3164 20.9128 48.4581 22.5928 47.411 34.6472C47.3563 35.2582 49.8327 32.04 51.7527 31.0582C53.6727 30.0762 53.6071 26.9018 53.6071 26.9018C53.6071 26.9018 53.6399 21.371 45.8835 19.7346C38.1382 18.109 36.3164 20.9128 36.3164 20.9128V20.9128Z" fill="black"/>
<path d="M29.9344 29.5964C26.16 29.5964 22.3418 33.3054 23.1382 32.891C24.611 32.1164 25.4618 30.7528 29.9346 30.7528C34.4071 30.7528 35.2471 32.1164 36.731 32.891C37.5271 33.3054 33.7089 29.5964 29.9346 29.5964H29.9344Z" fill="#F7BD89"/>
<path d="M29.9344 27.9709C27.0656 27.9709 24.1746 30.7853 24.7746 30.4689C25.8982 29.8799 27.3382 28.8435 29.9346 28.8435C32.531 28.8435 33.971 29.8799 35.0946 30.4689C35.6946 30.7853 32.8036 27.9709 29.9346 27.9709H29.9344ZM29.9128 18.84C26.749 18.84 23.5418 20.651 24.2072 20.4436C25.451 20.0618 27.0436 19.3964 29.9128 19.3964C32.7818 19.3964 34.3746 20.062 35.6182 20.4436C36.2838 20.651 33.0872 18.84 29.9128 18.84V18.84Z" fill="#F7BD89"/>
<path d="M30.6436 34.1018C30.731 34.2981 30.4256 34.6145 29.9346 34.6145C29.4436 34.6145 29.1382 34.2981 29.2254 34.1018C29.3128 33.9054 29.6182 33.84 29.9346 33.829C30.24 33.829 30.5564 33.8946 30.6436 34.1018Z" fill="#808080"/>
</svg>
