<svg width="40" height="40" viewBox="0 0 40 40" fill="none" xmlns="http://www.w3.org/2000/svg">
    <path d="M38.3294 22.8958C38.4811 21.9376 38.5573 20.969 38.5574 19.9989C38.5574 9.74924 30.249 1.44088 19.9989 1.44088C19.0154 1.44088 18.0465 1.52176 17.1029 1.66932C15.3936 0.612 13.3763 0 11.2146 0C5.02084 0 0 5.0204 0 11.2146C0 13.3758 0.61244 15.3914 1.66932 17.1042C1.52312 18.05 1.44264 19.0131 1.44264 19.9993C1.44264 30.2494 9.751 38.5556 19.9984 38.5556C20.9829 38.5556 21.9518 38.4796 22.8953 38.3307C24.6064 39.3862 26.6219 40 28.7837 40C34.9787 40 39.9991 34.9783 39.9991 28.7841C39.9996 26.6224 39.3876 24.6068 38.3294 22.8958ZM28.8099 28.4392C28.0246 29.5694 26.8717 30.4526 25.3646 31.0876C23.8544 31.7241 22.07 32.041 20.0091 32.041C17.5389 32.041 15.4936 31.609 13.8794 30.7361C12.735 30.1112 11.8043 29.2726 11.0888 28.2268C10.3719 27.1806 10.0083 26.1562 10.0083 25.157C10.0083 24.5677 10.2332 24.0548 10.6706 23.6371C11.1128 23.2162 11.6821 23.0051 12.3541 23.0051C12.9048 23.0051 13.3776 23.1708 13.7625 23.4993C14.1447 23.8277 14.4652 24.3051 14.7274 24.9353C15.0416 25.6655 15.383 26.2757 15.746 26.7624C16.1069 27.2432 16.6149 27.645 17.2727 27.9592C17.9234 28.2744 18.7891 28.4317 19.8727 28.4317C21.3553 28.4317 22.554 28.1112 23.4708 27.4784C24.3926 26.8402 24.8357 26.0633 24.8357 25.1242C24.8357 24.3757 24.5966 23.7806 24.1073 23.3171C23.6135 22.8478 22.9753 22.49 22.1838 22.2406C21.3891 21.9886 20.322 21.7211 18.9847 21.4393C17.1892 21.0478 15.6874 20.5913 14.4714 20.0678C13.2536 19.5416 12.2839 18.8229 11.5652 17.9149C10.8448 16.998 10.4857 15.8585 10.4857 14.5087C10.4857 13.2216 10.8648 12.0705 11.6239 11.0688C12.3825 10.0643 13.4803 9.29544 14.9114 8.75992C16.3376 8.22436 18.0167 7.9568 19.9402 7.9568C21.4784 7.9568 22.8091 8.13456 23.9353 8.4888C25.0588 8.84568 25.9948 9.31636 26.7432 9.907C27.4877 10.4963 28.0348 11.1181 28.3815 11.7705C28.7277 12.4248 28.9024 13.0638 28.9024 13.6874C28.9024 14.2674 28.6775 14.7932 28.2397 15.254C27.8015 15.7158 27.2415 15.9509 26.5873 15.9487C25.9975 15.9487 25.5348 15.8127 25.214 15.5247C24.9015 15.246 24.5735 14.8025 24.2184 14.1843C23.77 13.3216 23.2326 12.6496 22.6073 12.1688C21.9989 11.6972 20.9949 11.4514 19.598 11.4545C18.3056 11.4545 17.2714 11.7185 16.4909 12.235C15.7056 12.7598 15.33 13.3688 15.3283 14.0821C15.3296 14.5292 15.458 14.906 15.7167 15.2283C15.9794 15.5536 16.3447 15.8354 16.8145 16.0732C17.2842 16.3145 17.762 16.5012 18.2425 16.6354C18.7282 16.7732 19.5344 16.9722 20.6549 17.2358C22.0602 17.5389 23.3353 17.8771 24.4806 18.246C25.6237 18.6167 26.5993 19.0638 27.4055 19.5962C28.2179 20.1273 28.853 20.8042 29.3064 21.622C29.7623 22.4411 29.9899 23.4415 29.9899 24.6184C29.9917 26.0362 29.5966 27.3108 28.8099 28.4392V28.4392Z" fill="#1589FF"/>
</svg>
