<svg width="33" height="30" viewBox="0 0 33 30" fill="none" xmlns="http://www.w3.org/2000/svg">
<path d="M30.087 0.00298832C29.6858 0.032183 29.2919 0.126324 28.9208 0.281738H28.9158C28.5595 0.422988 26.8658 1.13549 24.2908 2.21549L15.0633 6.10174C8.44204 8.88924 1.93329 11.6342 1.93329 11.6342L2.01079 11.6042C2.01079 11.6042 1.56204 11.7517 1.09329 12.073C0.803698 12.2573 0.554505 12.4984 0.360788 12.7817C0.130788 13.1192 -0.0542119 13.6355 0.014538 14.1692C0.127038 15.0717 0.712038 15.613 1.13204 15.9117C1.55704 16.2142 1.96204 16.3555 1.96204 16.3555H1.97204L8.07579 18.4117C8.34954 19.2905 9.93579 24.5055 10.317 25.7067C10.542 26.4242 10.7608 26.873 11.0345 27.2155C11.167 27.3905 11.322 27.5367 11.5083 27.6542C11.6051 27.7106 11.7084 27.755 11.8158 27.7867L11.7533 27.7717C11.772 27.7767 11.787 27.7917 11.8008 27.7967C11.8508 27.8105 11.8845 27.8155 11.9483 27.8255C12.9145 28.118 13.6908 27.518 13.6908 27.518L13.7345 27.483L17.3383 24.2017L23.3783 28.8355L23.5158 28.8942C24.7745 29.4467 26.0495 29.1392 26.7233 28.5967C27.402 28.0505 27.6658 27.3517 27.6658 27.3517L27.7095 27.2392L32.377 3.32799C32.5095 2.73799 32.5433 2.18549 32.397 1.64924C32.2462 1.10652 31.898 0.639747 31.4208 0.340488C31.0201 0.0968819 30.5554 -0.020701 30.087 0.00298832V0.00298832ZM29.9608 2.56549C29.9558 2.64424 29.9708 2.63549 29.9358 2.78674V2.80049L25.312 26.463C25.292 26.4967 25.2583 26.5705 25.1658 26.6442C25.0683 26.7217 24.9908 26.7705 24.5845 26.6092L17.197 20.9455L12.7345 25.013L13.672 19.0255L25.742 7.77549C26.2395 7.31299 26.0733 7.21549 26.0733 7.21549C26.1083 6.64799 25.322 7.04924 25.322 7.04924L10.102 16.478L10.097 16.453L2.80204 13.9967V13.9917L2.78329 13.988C2.79608 13.9837 2.8086 13.9787 2.82079 13.973L2.86079 13.953L2.89954 13.9392C2.89954 13.9392 9.41329 11.1942 16.0345 8.40674C19.3495 7.01049 22.6895 5.60424 25.2583 4.51924C27.827 3.44049 29.7258 2.64924 29.8333 2.60674C29.9358 2.56674 29.887 2.56674 29.9608 2.56674V2.56549Z" fill="#1589FF"/>
</svg>
