<svg width="43" height="30" viewBox="0 0 43 30" fill="none" xmlns="http://www.w3.org/2000/svg">
<g clip-path="url(#clip0)">
<path d="M41.9647 4.69412C41.4706 2.85882 40.0235 1.41176 38.1882 0.917647C34.8353 0 21.4235 0 21.4235 0C21.4235 0 8.01176 0 4.65882 0.882353C2.85882 1.37647 1.37647 2.85882 0.882353 4.69412C0 8.04706 0 15 0 15C0 15 0 21.9882 0.882353 25.3059C1.37647 27.1412 2.82353 28.5882 4.65882 29.0824C8.04706 30 21.4235 30 21.4235 30C21.4235 30 34.8353 30 38.1882 29.1176C40.0235 28.6235 41.4706 27.1765 41.9647 25.3412C42.8471 21.9882 42.8471 15.0353 42.8471 15.0353C42.8471 15.0353 42.8824 8.04706 41.9647 4.69412V4.69412Z" fill="#FF0000"/>
<path d="M28.3059 15L17.153 8.57648V21.4235L28.3059 15Z" fill="white"/>
</g>
<defs>
<clipPath id="clip0">
<rect width="42.8472" height="30" fill="white"/>
</clipPath>
</defs>
</svg>
