<svg width="32" height="32" viewBox="0 0 32 32" fill="none" xmlns="http://www.w3.org/2000/svg">
<path d="M21.3216 8.32166L16.6666 3.66666V15.3333H28.3333L23.6783 10.6783L31.1783 3.17832L28.8216 0.821655L21.3216 8.32166Z" fill="#1589FF"/>
<path d="M22.37 19.405C22.0497 19.1139 21.6289 18.9587 21.1963 18.972C20.7638 18.9854 20.3533 19.1664 20.0516 19.4767L16.065 23.5783C15.105 23.395 13.175 22.7933 11.1883 20.8117C9.20165 18.8233 8.59998 16.8883 8.42165 15.935L12.52 11.945C12.8307 11.6435 13.0119 11.233 13.0252 10.8003C13.0386 10.3676 12.8831 9.94673 12.5916 9.62666L6.43332 2.85499C6.14172 2.53392 5.73645 2.33917 5.30357 2.31209C4.87069 2.28502 4.44431 2.42776 4.11498 2.70999L0.498315 5.81166C0.209685 6.10068 0.0371162 6.48555 0.013315 6.89332C-0.011685 7.30999 -0.488351 17.18 7.16498 24.8367C13.8416 31.5117 22.2066 32 24.5083 32C24.8466 32 25.0516 31.99 25.1066 31.9867C25.5142 31.9642 25.899 31.7914 26.1866 31.5017L29.2883 27.8833C29.5704 27.554 29.7131 27.1279 29.6864 26.6951C29.6596 26.2624 29.4654 25.857 29.145 25.565L22.37 19.405V19.405Z" fill="#1589FF"/>
</svg>
